Coordinates
version=1
nRows=65
nColumns=12
inDegrees=yes

Units are S.I. units (second, meters, Newtons, ...)
Angles are in degrees

endheader
time	SC_y	SC_z	SC_x	AC_y	AC_z	AC_x	GH_y	GH_z	GH_yy	EL_x	PS_y
       0.0              -14.71          30.08          72.04          61.14          3.654         -3.292         -114.2          12.33         -92.84           19.4          106.7
   0.04743              -14.71          30.08          72.03          61.14          3.653         -3.289         -114.2          12.34         -92.82           19.4          106.7
   0.09487              -14.72          30.08          72.02          61.14          3.652         -3.286         -114.2          12.35          -92.8           19.4          106.7
    0.1423              -14.72          30.08          72.01          61.13           3.65         -3.283         -114.1          12.35         -92.79          19.41          106.7
    0.1897              -14.72          30.08           72.0          61.13          3.649         -3.279         -114.1          12.37         -92.77          19.41          106.7
    0.2372              -14.72          30.08          71.99          61.12          3.647         -3.276         -114.1          12.38         -92.75          19.42          106.7
    0.2846              -14.72          30.08          71.97          61.11          3.646         -3.272         -114.1          12.39         -92.73          19.42          106.7
     0.332              -14.73          30.09          71.96          61.11          3.644         -3.267         -114.1           12.4          -92.7          19.42          106.7
    0.3795              -14.73          30.09          71.95           61.1          3.642         -3.263         -114.1          12.41         -92.68          19.43          106.7
    0.4269              -14.73          30.09          71.93          61.09           3.64         -3.258         -114.1          12.43         -92.65          19.44          106.7
    0.4743              -14.73          30.09          71.92          61.09          3.637         -3.253         -114.0          12.44         -92.62          19.44          106.7
    0.5218              -14.74          30.09           71.9          61.08          3.635         -3.247         -114.0          12.46         -92.59          19.45          106.7
    0.5692              -14.74          30.09          71.88          61.07          3.632         -3.241         -114.0          12.48         -92.56          19.45          106.7
    0.6166              -14.74          30.09          71.86          61.06          3.629         -3.234         -114.0           12.5         -92.52          19.46          106.7
    0.6641              -14.75          30.09          71.84          61.05          3.626         -3.227         -113.9          12.52         -92.48          19.47          106.6
    0.7115              -14.75          30.09          71.82          61.04          3.623         -3.219         -113.9          12.54         -92.44          19.48          106.6
    0.7589              -14.76           30.1          71.79          61.02          3.619         -3.211         -113.9          12.57          -92.4          19.49          106.6
    0.8064              -14.76           30.1          71.76          61.01          3.615         -3.202         -113.8          12.59         -92.35           19.5          106.6
    0.8538              -14.77           30.1          71.73           61.0          3.611         -3.192         -113.8          12.62         -92.29          19.51          106.6
    0.9012              -14.77           30.1           71.7          60.98          3.606         -3.181         -113.8          12.66         -92.23          19.52          106.6
    0.9487              -14.78           30.1          71.66          60.96          3.601         -3.169         -113.7          12.69         -92.17          19.53          106.6
    0.9961              -14.79          30.11          71.62          60.94          3.595         -3.156         -113.7          12.73          -92.1          19.55          106.6
     1.044              -14.79          30.11          71.58          60.92          3.589         -3.141         -113.6          12.77         -92.02          19.56          106.5
     1.091               -14.8          30.11          71.53           60.9          3.582         -3.125         -113.6          12.82         -91.93          19.58          106.5
     1.138              -14.81          30.12          71.48          60.87          3.574         -3.107         -113.5          12.87         -91.83           19.6          106.5
     1.186              -14.82          30.12          71.42          60.84          3.566         -3.087         -113.4          12.93         -91.72          19.62          106.5
     1.233              -14.84          30.12          71.35          60.81          3.556         -3.064         -113.3           13.0          -91.6          19.65          106.4
     1.281              -14.85          30.13          71.27          60.77          3.545         -3.039         -113.2          13.07         -91.46          19.68          106.4
     1.328              -14.87          30.13          71.19          60.73          3.532         -3.011         -113.1          13.16         -91.31          19.71          106.4
     1.376              -14.88          30.14          71.09          60.68          3.518         -2.978         -113.0          13.25         -91.13          19.75          106.3
     1.423               -14.9          30.15          70.98          60.63          3.502         -2.941         -112.9          13.36         -90.93          19.79          106.3
      1.47              -14.93          30.16          70.85          60.56          3.484         -2.899         -112.7          13.49          -90.7          19.83          106.2
     1.518              -14.95          30.16           70.7          60.49          3.463          -2.85         -112.5          13.63         -90.43          19.89          106.2
     1.565              -14.98          30.18          70.53          60.41          3.438         -2.793         -112.3           13.8         -90.12          19.95          106.1
     1.613              -15.02          30.19          70.33          60.31          3.409         -2.726         -112.1           14.0         -89.76          20.03          106.0
      1.66              -15.06           30.2          70.09          60.19          3.375         -2.647         -111.8          14.23         -89.33          20.11          105.9
     1.708              -15.11          30.22          69.81          60.05          3.335         -2.554         -111.5          14.51         -88.82          20.22          105.8
     1.755              -15.17          30.24          69.47          59.89          3.286         -2.442         -111.0          14.84         -88.21          20.34          105.6
     1.802              -15.25          30.27          69.06          59.69          3.227         -2.306         -110.5          15.24         -87.47          20.49          105.5
      1.85              -15.34           30.3          68.56          59.44          3.156         -2.141         -109.9          15.72         -86.57          20.67          105.2
     1.897              -15.45          30.34          67.95          59.14          3.067         -1.937         -109.2          16.33         -85.46           20.9          105.0
     1.945              -15.58          30.39          67.18          58.77          2.957         -1.682         -108.2          17.08         -84.08          21.18          104.6
     1.992              -15.76          30.45          66.21          58.29          2.818         -1.361         -107.1          18.02         -82.33          21.54          104.2
      2.04              -15.98          30.52          64.98          57.69          2.641        -0.9532         -105.6          19.23         -80.11          21.99          103.7
     2.087              -16.26          30.62           63.4          56.92          2.414        -0.4311         -103.6          20.77         -77.27          22.57          103.0
     2.135              -16.62          30.75          61.38          55.93          2.124         0.2389         -101.2          22.75         -73.62          23.31          102.2
     2.182              -17.09          30.91           58.8          54.66          1.753          1.095         -98.01          25.27         -68.97          24.26          101.1
     2.229              -17.67          31.12          55.55          53.08          1.287          2.171         -94.05          28.45         -63.11          25.46          99.67
     2.277              -18.38          31.36           51.6          51.14         0.7183          3.482         -89.22          32.32         -55.98          26.91          97.97
     2.324               -19.2          31.65          47.01          48.89        0.05946          5.002         -83.61           36.8          -47.7           28.6          96.01
     2.372               -20.1          31.96          42.04          46.46        -0.6539          6.648         -77.55          41.66         -38.75          30.42          93.88
     2.419              -20.99          32.28          37.08          44.03         -1.367          8.294         -71.48          46.51         -29.79          32.25          91.75
     2.467              -21.81          32.56          32.49          41.79         -2.026          9.814         -65.88           51.0         -21.52          33.93          89.79
     2.514              -22.52          32.81          28.53          39.85         -2.595          11.13         -61.05          54.87         -14.39          35.39          88.09
     2.561               -23.1          33.02          25.29          38.26         -3.061           12.2         -57.08          58.04         -8.531          36.58           86.7
     2.609              -23.57          33.18           22.7          36.99         -3.432          13.06         -53.93          60.57         -3.874          37.53          85.59
     2.656              -23.93          33.31          20.68          36.01         -3.722          13.73         -51.46          62.54        -0.2288          38.27          84.73
     2.704              -24.21          33.41          19.11          35.23         -3.949          14.25         -49.54          64.08          2.612          38.85          84.05
     2.751              -24.43          33.48          17.88          34.63         -4.125          14.66         -48.03          65.29          4.832           39.3          83.52
     2.799              -24.61          33.54          16.91          34.16         -4.264          14.98         -46.85          66.23          6.578          39.66          83.11
     2.846              -24.74          33.59          16.14          33.78         -4.375          15.23         -45.91          66.99          7.964          39.94          82.78
     2.893              -24.85          33.63          15.52          33.48         -4.463          15.44         -45.16          67.59          9.075          40.17          82.52
     2.941              -24.94          33.66          15.02          33.23         -4.535           15.6         -44.55          68.08          9.976          40.35           82.3
     2.988              -25.02          33.69          14.62          33.03         -4.594          15.74         -44.05          68.48          10.71           40.5          82.13
     3.036              -25.08          33.71          14.28          32.87         -4.642          15.85         -43.64          68.81          11.32          40.63          81.98
